# xmcd CD database file
#
# Track frame offsets:
#	150
#	14420
#	27212
#	41217
#	62047
#	74460
#	89172
#	102892
#	115185
#	130877
#
# Disc length: 1965 seconds
#
# Revision: 0
# Processed by: cddbd v1.5.1PL2 Copyright (c) Steve Scherf et al.
# Submitted via: CDex 1.50
#
DISCID=8d07ab0a
DTITLE=Anthony Carson - My Heart Still Jumps For Joy
DYEAR=2001
DGENRE=Country
TTITLE0=My Heart Still Jumps For Joy
TTITLE1=I Think She's Really Leaving
TTITLE2=That's Easy To Forget
TTITLE3=Angel Unaware
TTITLE4=Too Lonely Too Long
TTITLE5=On My Own Again
TTITLE6=Point Of No Return
TTITLE7=Sometimes When She's Lonely
TTITLE8=What Happened
TTITLE9=When Anna Smiles
EXTD=YEAR: 2001
EXTT0=
EXTT1=
EXTT2=
EXTT3=
EXTT4=
EXTT5=
EXTT6=
EXTT7=
EXTT8=
EXTT9=
PLAYORDER=
